<?xml version="1.0" standalone="no"?>
<!DOCTYPE svg PUBLIC "-//W3C//DTD SVG 20010904//EN"
 "http://www.w3.org/TR/2001/REC-SVG-20010904/DTD/svg10.dtd">
<svg version="1.0" xmlns="http://www.w3.org/2000/svg"
 width="1678.000000pt" height="1215.000000pt" viewBox="0 0 1678.000000 1215.000000"
 preserveAspectRatio="xMidYMid meet">

<g transform="translate(0.000000,1215.000000) scale(0.100000,-0.100000)"
fill="#000000" stroke="none">
<path d="M10 8465 l0 -3685 220 0 220 0 0 3480 0 3480 3485 0 3485 0 0 205 0
205 -3705 0 -3705 0 0 -3685z"/>
<path d="M1638 10574 c-62 -33 -58 157 -58 -2469 0 -1745 3 -2402 11 -2418 6
-12 21 -30 33 -39 20 -16 101 -18 1248 -18 675 0 1229 -4 1232 -8 3 -5 -6 -71
-20 -147 -13 -77 -24 -143 -24 -147 0 -5 -97 -8 -215 -8 l-215 0 -32 -29 -33
-29 -3 -279 c-2 -153 -1 -287 2 -299 3 -11 18 -33 32 -47 l27 -27 1247 0
c1241 0 1247 0 1273 20 15 12 31 38 37 58 12 46 13 492 0 546 -5 21 -18 48
-30 60 -19 20 -34 21 -242 26 l-222 5 -23 130 c-12 72 -22 140 -22 153 l-1 22
1231 0 1231 0 28 28 c19 19 30 43 35 73 3 24 5 1109 3 2411 l-3 2367 -21 28
c-11 15 -32 34 -45 40 -19 10 -705 13 -3229 12 -2816 0 -3208 -2 -3232 -15z
m6312 -2249 l0 -2045 -3075 0 -3075 0 0 2045 0 2045 3075 0 3075 0 0 -2045z
m-2 -2372 l-3 -108 -3072 -3 -3073 -2 0 110 0 110 3075 0 3076 0 -3 -107z
m-2511 -453 c12 -69 22 -137 22 -152 l1 -28 -590 0 c-324 0 -590 3 -590 6 0
20 44 263 51 282 l9 22 537 -2 538 -3 22 -125z m531 -532 l-3 -143 -1092 -3
-1093 -2 0 145 0 145 1095 0 1096 0 -3 -142z"/>
<path d="M4054 10200 c-47 -19 -62 -54 -69 -168 -9 -153 -4 -144 -83 -175 -38
-15 -73 -27 -77 -27 -4 0 -43 31 -86 70 -44 38 -93 77 -110 86 -60 31 -81 18
-257 -159 -157 -158 -162 -165 -162 -204 0 -44 4 -50 114 -175 l59 -68 -25
-57 c-14 -32 -28 -65 -31 -74 -5 -14 -27 -18 -124 -24 -205 -13 -203 -9 -203
-310 1 -165 4 -234 13 -246 29 -38 62 -48 180 -55 68 -4 121 -11 125 -18 4 -6
19 -40 34 -75 23 -54 26 -67 15 -80 -7 -9 -40 -47 -74 -86 -69 -81 -83 -104
-83 -140 0 -42 16 -63 145 -195 91 -93 126 -135 135 -165 7 -22 31 -80 53
-128 28 -61 38 -93 31 -102 -5 -8 -62 -75 -127 -149 -65 -74 -122 -148 -126
-163 -16 -58 2 -81 232 -310 l223 -223 46 0 c52 0 42 -7 231 157 65 57 122
103 128 103 5 0 35 -13 67 -29 31 -15 86 -39 122 -51 36 -13 70 -27 75 -32 6
-5 17 -99 26 -210 l15 -201 32 -28 32 -29 324 0 c311 0 324 1 349 21 36 28 44
66 58 269 6 96 12 176 12 176 1 1 43 18 93 37 50 19 110 45 132 56 23 12 45
21 49 21 4 0 73 -56 153 -125 80 -69 159 -129 175 -134 60 -16 82 1 313 232
285 286 279 250 79 480 -114 131 -120 140 -110 165 19 46 90 226 96 243 4 13
39 18 200 29 212 14 247 24 267 76 15 37 13 626 -2 658 -22 50 -49 58 -242 72
-100 8 -189 15 -200 16 -13 2 -27 27 -50 88 -18 47 -44 108 -59 136 l-26 51
135 157 c117 137 134 161 134 192 0 19 -6 47 -14 62 -16 29 -395 409 -436 436
-13 9 -41 16 -62 16 -34 0 -51 -11 -151 -97 -61 -53 -131 -114 -154 -134 l-42
-38 -93 43 c-51 24 -111 49 -133 56 -30 9 -72 44 -165 136 -69 67 -138 128
-154 134 -48 18 -81 3 -179 -81 -50 -43 -96 -79 -101 -79 -6 0 -40 12 -77 28
l-67 27 -6 105 c-9 140 -19 176 -59 200 -29 18 -51 20 -247 19 -118 0 -225 -4
-236 -9z m331 -320 c13 -150 20 -160 127 -195 46 -15 112 -42 148 -61 103 -54
127 -50 235 41 l89 75 63 -62 62 -61 -22 -27 c-12 -15 -45 -54 -74 -88 -73
-86 -74 -102 -19 -214 24 -51 52 -120 61 -152 29 -100 46 -109 218 -122 l87
-6 0 -88 0 -88 -82 -6 c-174 -14 -191 -24 -222 -123 -10 -32 -38 -102 -63
-155 -33 -73 -43 -105 -38 -126 3 -15 39 -66 80 -113 l74 -84 -64 -64 -64 -65
-73 66 c-40 36 -83 70 -95 76 -38 20 -80 13 -160 -27 -43 -21 -105 -47 -138
-57 -33 -10 -73 -30 -90 -46 -28 -27 -30 -34 -40 -146 l-10 -117 -87 -3 c-67
-2 -88 0 -88 10 -1 7 -5 60 -9 117 -12 136 -19 146 -147 191 -55 20 -120 47
-144 62 -84 49 -111 43 -220 -48 l-92 -77 -59 59 c-32 32 -59 62 -59 66 0 4
29 40 63 80 104 119 106 131 48 246 -21 42 -48 109 -60 148 -31 106 -52 118
-213 129 l-98 7 0 88 0 88 88 6 c175 13 191 22 222 125 11 37 38 104 60 148
59 120 57 133 -46 249 -35 40 -64 76 -64 81 0 5 27 35 59 67 l60 59 57 -49
c105 -91 125 -104 167 -104 23 0 55 10 82 26 24 14 90 42 146 62 132 48 137
54 149 202 5 63 10 116 10 118 0 1 39 1 88 0 l87 -3 10 -115z m1662 -372 c68
-68 123 -126 123 -130 0 -4 -54 -69 -120 -145 -83 -95 -122 -148 -126 -171 -5
-28 4 -54 54 -155 33 -67 75 -168 92 -225 24 -79 38 -107 57 -119 18 -12 70
-20 182 -29 86 -7 171 -13 189 -14 l32 0 0 -185 0 -185 -27 0 c-16 -1 -102 -7
-192 -14 -159 -13 -164 -14 -191 -42 -18 -19 -38 -64 -60 -133 -17 -58 -56
-152 -86 -209 -54 -105 -63 -137 -44 -172 6 -10 62 -79 125 -152 63 -73 115
-135 115 -138 0 -3 -57 -62 -127 -132 l-128 -126 -142 123 c-79 67 -154 126
-167 129 -30 7 -36 5 -169 -60 -60 -30 -153 -68 -207 -85 -117 -36 -149 -64
-151 -132 0 -23 -6 -107 -12 -187 l-12 -145 -182 -3 c-143 -2 -183 0 -183 10
0 7 -7 93 -14 192 -11 148 -17 183 -33 205 -21 27 -26 29 -173 76 -47 15 -133
52 -191 82 -99 51 -109 54 -140 44 -19 -6 -97 -65 -173 -132 l-139 -121 -130
130 -130 130 99 114 c154 175 154 176 154 215 0 24 -21 78 -62 161 l-62 124
34 29 c19 17 49 41 65 54 l31 24 72 -27 c82 -31 77 -20 87 -181 12 -165 20
-171 241 -171 l156 0 59 -36 c193 -117 466 -147 689 -75 282 91 495 315 572
601 18 69 22 110 22 215 -1 160 -22 247 -94 390 l-50 101 0 152 c0 224 -9 235
-210 247 l-115 7 -31 74 -32 74 51 57 c27 32 57 59 66 61 9 1 70 -24 136 -58
66 -33 129 -60 140 -60 30 0 69 28 200 143 66 58 124 106 130 106 5 1 65 -54
132 -121z m-578 -945 c31 -86 40 -139 41 -229 1 -291 -196 -545 -479 -619
-117 -30 -294 -19 -398 26 -41 18 -43 20 -42 61 1 24 4 67 7 96 l7 53 73 31
73 30 67 -59 c134 -117 132 -116 180 -110 42 5 54 14 198 158 96 96 158 166
165 186 14 45 -4 81 -91 182 l-73 83 13 37 c7 20 21 55 31 78 l18 42 68 4 c37
2 80 4 94 5 24 2 29 -4 48 -55z"/>
<path d="M4165 9514 c-268 -56 -465 -285 -482 -559 -16 -279 153 -529 418
-616 102 -33 262 -34 364 -2 259 82 426 308 428 578 0 68 -5 119 -17 160 -50
169 -166 310 -316 384 -138 68 -255 84 -395 55z m270 -234 c83 -32 183 -132
214 -214 81 -218 -21 -441 -236 -517 -82 -29 -205 -23 -285 13 -80 37 -151
107 -191 187 -30 61 -32 72 -32 171 0 94 3 111 27 160 52 106 126 171 243 213
67 23 178 18 260 -13z"/>
<path d="M10064 10570 c-62 -24 -119 -79 -147 -140 -18 -38 -22 -70 -25 -202
l-4 -158 -47 -1 c-160 -2 -317 -96 -405 -242 -71 -118 -66 43 -66 -2369 0
-2393 -4 -2237 62 -2360 59 -111 201 -214 327 -238 35 -6 777 -10 2117 -10
2012 0 2065 0 2114 19 28 11 70 34 93 52 23 18 240 241 482 496 363 381 446
474 475 529 l35 67 3 1806 c2 1274 -1 1822 -9 1859 -26 125 -123 262 -232 326
-61 36 -168 66 -235 66 l-40 0 -4 158 c-4 146 -6 161 -30 208 -15 27 -45 67
-67 87 -61 55 -116 67 -316 67 -194 0 -247 -11 -308 -61 -84 -69 -107 -143
-107 -341 l0 -118 -547 2 -548 3 -5 165 c-4 144 -8 170 -27 205 -27 50 -65 87
-123 117 -42 21 -58 23 -240 26 -177 3 -200 2 -250 -17 -90 -34 -148 -102
-169 -199 -6 -29 -11 -109 -11 -178 l0 -124 -547 2 -548 3 -5 165 c-5 156 -6
167 -32 210 -32 55 -60 81 -118 112 -42 22 -57 23 -245 25 -180 2 -205 1 -251
-17z m422 -204 c18 -14 19 -32 22 -430 l3 -416 -26 -26 -25 -25 -164 3 c-120
2 -167 7 -179 17 -15 12 -17 55 -17 434 0 377 2 422 17 439 14 16 34 18 183
18 128 0 171 -3 186 -14z m1928 -8 c14 -19 16 -78 16 -434 l0 -413 -27 -21
c-26 -20 -36 -21 -191 -18 -148 3 -165 5 -178 22 -12 16 -14 92 -14 435 0 372
2 416 17 433 14 16 34 18 189 18 167 0 173 -1 188 -22z m1920 0 c14 -19 16
-78 16 -433 0 -339 -2 -415 -14 -431 -13 -18 -28 -19 -190 -19 -130 0 -178 3
-188 13 -10 10 -14 104 -16 429 -2 362 -1 419 13 439 15 24 17 24 190 24 168
0 174 -1 189 -22z m-4444 -693 c6 -226 16 -263 88 -326 74 -66 98 -70 335 -67
236 3 253 7 320 75 67 67 72 85 75 316 l3 207 547 -2 547 -3 5 -195 c5 -192 5
-196 35 -255 33 -66 91 -117 153 -135 52 -14 410 -13 453 2 55 18 119 70 147
118 26 44 27 50 32 255 l5 210 546 3 547 2 4 -197 c4 -181 6 -203 28 -252 27
-61 97 -124 158 -141 48 -13 406 -13 454 0 60 17 131 80 159 141 22 50 24 69
27 252 l4 198 41 -6 c118 -18 191 -67 236 -157 l31 -61 0 -1669 0 -1668 -365
0 c-226 0 -384 -4 -417 -11 -129 -27 -269 -131 -330 -245 -53 -99 -58 -142
-58 -586 l0 -408 -1956 0 -1955 0 -55 26 c-63 30 -127 102 -144 162 -7 25 -10
753 -10 2217 1 1795 3 2187 14 2218 31 86 109 153 205 173 92 20 85 35 91
-191z m4968 -3574 c-5 -14 -928 -1025 -939 -1029 -6 -3 -9 156 -7 420 3 395 4
426 22 462 27 54 80 104 140 132 51 24 53 24 419 24 217 0 367 -4 365 -9z"/>
<path d="M10390 8771 c-91 -29 -164 -94 -207 -186 l-28 -60 0 -225 c0 -223 0
-226 27 -282 32 -70 96 -133 168 -167 l55 -26 316 -3 c324 -4 397 2 467 35 51
24 115 91 149 155 l28 53 0 235 0 235 -27 56 c-33 67 -92 127 -156 160 -47 24
-48 24 -407 26 -198 1 -371 -2 -385 -6z m726 -208 c53 -38 64 -82 64 -264 0
-174 -7 -205 -55 -249 l-27 -25 -338 0 -339 0 -29 28 c-43 41 -52 87 -52 255
0 116 4 161 16 192 16 40 51 73 89 83 11 3 160 4 330 4 304 -2 311 -2 341 -24z"/>
<path d="M11851 8769 c-81 -24 -156 -93 -198 -184 l-28 -60 0 -225 c0 -223 0
-225 27 -282 29 -63 98 -136 152 -162 68 -32 143 -38 465 -34 l316 3 56 26
c72 34 128 90 165 165 l29 59 0 230 c0 215 -1 233 -22 277 -29 63 -96 134
-158 166 l-50 27 -360 2 c-214 1 -374 -2 -394 -8z m727 -199 c13 -8 33 -31 45
-50 20 -31 22 -51 25 -194 4 -180 -5 -230 -50 -273 l-29 -28 -339 0 -339 0
-29 28 c-43 41 -52 86 -52 258 0 195 18 245 97 269 15 5 168 8 338 7 256 -2
314 -5 333 -17z"/>
<path d="M13315 8768 c-43 -16 -97 -51 -135 -89 -70 -71 -100 -183 -100 -379
0 -205 36 -320 121 -393 95 -82 141 -89 538 -85 l316 3 56 26 c72 34 128 90
165 165 l29 59 0 225 0 225 -32 66 c-41 82 -101 139 -177 168 -54 20 -73 21
-404 20 -221 0 -358 -4 -377 -11z m733 -198 c13 -8 33 -31 45 -50 20 -32 22
-51 25 -199 4 -180 -5 -226 -54 -272 l-26 -24 -338 0 -339 0 -30 29 c-43 42
-51 79 -51 256 0 142 2 160 23 200 40 80 45 81 407 78 260 -3 319 -6 338 -18z"/>
<path d="M10364 7599 c-75 -28 -137 -88 -176 -167 l-33 -67 0 -225 0 -225 33
-67 c36 -73 87 -124 161 -160 45 -23 52 -23 411 -23 l365 0 57 28 c69 34 121
90 160 172 l29 63 -3 224 c-3 213 -4 225 -28 273 -36 74 -114 148 -183 173
-55 21 -73 22 -400 21 -316 0 -346 -2 -393 -20z m748 -192 c15 -10 36 -38 48
-61 18 -37 20 -61 20 -206 0 -143 -3 -169 -20 -205 -36 -75 -36 -75 -404 -75
l-325 0 -35 31 c-48 41 -56 78 -56 249 0 151 8 199 38 238 37 48 73 52 402 49
277 -2 307 -4 332 -20z"/>
<path d="M11834 7599 c-75 -28 -137 -88 -176 -167 l-33 -67 0 -225 c0 -222 0
-226 26 -281 36 -76 90 -133 157 -166 l57 -28 365 0 365 0 58 29 c67 34 115
83 154 158 l28 53 0 235 c0 225 -1 237 -23 282 -34 70 -93 130 -158 163 l-59
30 -355 2 c-334 2 -358 1 -406 -18z m736 -187 c14 -7 37 -29 50 -49 24 -36 25
-41 25 -217 0 -153 -3 -186 -18 -216 -34 -69 -37 -70 -397 -70 -355 0 -358 0
-396 64 -16 26 -20 56 -22 192 -5 218 11 269 93 299 54 20 626 17 665 -3z"/>
<path d="M13283 7590 c-69 -35 -136 -101 -164 -164 -37 -84 -51 -307 -29 -461
19 -128 90 -228 198 -278 45 -21 64 -22 377 -25 356 -4 407 1 483 46 56 32
115 106 141 177 19 50 21 78 21 255 0 178 -2 205 -21 256 -30 79 -92 151 -163
188 l-60 31 -361 3 -360 3 -62 -31z m757 -178 c14 -7 37 -29 50 -49 24 -35 25
-45 28 -201 4 -185 -6 -232 -59 -277 l-31 -25 -324 0 c-359 0 -368 1 -401 63
-14 26 -18 63 -21 193 -2 102 1 177 8 204 13 50 58 97 98 103 15 3 162 4 327
3 225 -1 306 -4 325 -14z"/>
<path d="M10372 6441 c-66 -23 -117 -63 -160 -125 -56 -84 -64 -130 -60 -359
3 -199 3 -203 32 -265 33 -70 90 -127 164 -164 46 -22 55 -23 398 -26 341 -3
353 -2 410 19 79 30 163 115 193 194 19 50 21 77 21 269 l0 213 -35 71 c-39
78 -94 133 -164 166 -44 20 -62 21 -396 23 -319 3 -355 1 -403 -16z m749 -208
c52 -44 59 -74 59 -255 0 -138 -3 -169 -19 -205 -33 -72 -37 -73 -400 -73
-223 0 -328 4 -346 12 -14 6 -36 28 -48 47 -20 33 -22 51 -25 197 -4 189 4
229 53 273 l36 31 329 0 328 0 33 -27z"/>
<path d="M11843 6442 c-96 -34 -163 -104 -203 -210 -19 -51 -21 -73 -18 -266
3 -209 3 -212 32 -274 36 -78 105 -143 183 -172 53 -20 71 -21 407 -18 l351 3
59 30 c65 33 119 88 156 161 25 48 25 53 25 284 l0 235 -28 53 c-39 75 -87
124 -154 158 l-58 29 -350 2 c-316 3 -355 1 -402 -15z m750 -212 c50 -44 59
-89 55 -276 -3 -128 -7 -165 -21 -191 -33 -62 -42 -63 -396 -63 -223 0 -328 4
-346 12 -14 6 -36 28 -48 47 -20 33 -22 51 -25 197 -4 189 4 229 53 273 l36
31 329 0 329 0 34 -30z"/>
<path d="M16330 4120 l0 -3700 -3480 0 -3480 0 0 -210 0 -210 3700 0 3700 0 0
3910 0 3910 -220 0 -220 0 0 -3700z"/>
<path d="M6098 3734 c-57 -30 -75 -120 -38 -181 78 -128 275 -38 231 106 -17
58 -61 91 -119 91 -26 -1 -59 -7 -74 -16z"/>
<path d="M1693 3719 c-256 -43 -450 -268 -492 -572 -42 -299 26 -580 177 -734
98 -101 220 -152 382 -160 127 -6 222 12 325 60 94 45 135 81 135 117 0 34
-44 90 -71 90 -10 0 -46 -18 -79 -40 -81 -52 -156 -73 -255 -74 -67 0 -90 4
-141 28 -117 53 -194 161 -236 332 -30 122 -32 397 -5 489 63 206 215 334 395
335 48 0 130 -18 137 -31 3 -4 1 -27 -4 -52 -34 -147 137 -246 243 -141 115
116 -20 305 -252 353 -61 13 -183 13 -259 0z"/>
<path d="M8992 3698 c-15 -15 -16 -57 -2 -92 9 -25 13 -26 89 -26 44 0 86 -3
95 -6 14 -6 16 -65 16 -575 0 -650 11 -584 -100 -596 -70 -7 -83 -21 -78 -86
l3 -42 283 -3 c184 -1 290 1 302 8 16 9 20 21 20 65 l0 54 -112 3 -113 3 -3
236 -2 236 107 6 c312 18 478 135 515 362 13 78 0 173 -32 241 -50 103 -172
184 -316 209 -105 19 -654 21 -672 3z m540 -143 c198 -26 256 -84 259 -257 2
-129 -35 -196 -130 -237 -53 -23 -152 -41 -223 -41 l-48 0 0 268 c0 148 3 272
7 275 8 9 10 9 135 -8z"/>
<path d="M5490 3518 c-19 -5 -41 -15 -47 -21 -7 -7 -22 -62 -33 -122 -25 -131
-33 -141 -128 -150 -37 -4 -73 -12 -79 -17 -8 -6 -13 -34 -13 -69 l0 -59 90 0
89 0 3 -343 3 -343 25 -49 c38 -73 91 -98 191 -92 51 3 97 14 145 34 65 27 69
30 72 64 2 26 -3 40 -20 56 -22 21 -25 21 -78 7 -73 -19 -103 -18 -131 5 l-24
19 -3 321 -3 321 125 0 c122 0 126 1 141 24 10 15 15 40 13 68 l-3 43 -135 5
-135 5 -3 153 c-2 112 -6 152 -15 151 -6 0 -28 -5 -47 -11z"/>
<path d="M12264 3519 c-47 -14 -57 -32 -81 -152 -14 -73 -27 -115 -38 -123 -9
-7 -47 -15 -83 -19 -37 -4 -72 -8 -78 -10 -13 -4 -24 -52 -24 -101 l0 -34 90
0 90 0 0 -308 c0 -382 10 -434 94 -496 58 -44 262 -18 337 43 17 14 20 23 14
49 -11 51 -39 64 -105 46 -75 -20 -97 -18 -125 11 l-25 24 0 316 0 315 124 0
c91 0 126 4 135 13 16 19 24 72 17 101 -6 25 -7 25 -139 28 l-132 3 -5 150
c-5 164 -5 162 -66 144z"/>
<path d="M2498 3240 c-89 -11 -136 -27 -149 -52 -13 -25 -5 -88 13 -100 7 -4
52 -8 101 -8 l87 0 0 -325 c0 -371 9 -340 -96 -351 -35 -4 -64 -13 -71 -22
-16 -20 -17 -84 -1 -100 16 -16 550 -17 579 -2 15 9 19 22 19 65 l0 54 -122 3
-123 3 -3 249 c-3 275 -7 250 67 349 31 42 85 87 105 87 3 0 6 -9 6 -19 0 -29
46 -78 85 -91 48 -16 86 -5 123 33 80 83 33 214 -85 233 -61 9 -141 -19 -233
-81 -45 -30 -83 -55 -85 -55 -3 0 -5 26 -5 58 0 32 -5 63 -12 70 -13 13 -94
14 -200 2z"/>
<path d="M3611 3240 c-160 -34 -289 -151 -340 -309 -25 -77 -28 -252 -7 -343
34 -142 118 -253 229 -304 58 -27 71 -29 182 -29 127 1 178 12 280 63 76 37
115 70 115 96 0 30 -41 90 -64 94 -10 2 -44 -12 -75 -32 -103 -63 -149 -79
-231 -80 -64 -1 -81 3 -121 26 -74 44 -125 134 -131 235 l-3 48 280 5 c154 3
287 9 295 14 52 31 60 47 60 124 0 241 -128 389 -343 398 -45 2 -102 -1 -126
-6z m179 -155 c59 -30 99 -113 100 -202 l0 -33 -225 0 c-180 0 -225 3 -225 13
0 7 7 37 16 66 18 61 74 123 137 152 52 23 156 25 197 4z"/>
<path d="M4545 3244 c-16 -3 -64 -15 -104 -26 -58 -17 -85 -32 -117 -63 -54
-51 -64 -95 -36 -158 16 -37 27 -47 66 -62 44 -17 48 -17 92 0 60 23 85 63 82
130 l-2 50 64 3 c81 4 141 -18 176 -63 20 -27 27 -51 35 -126 5 -51 8 -94 6
-95 -2 -2 -77 -5 -167 -7 -153 -3 -169 -5 -222 -29 -87 -40 -124 -73 -158
-141 -25 -50 -30 -72 -30 -131 0 -162 102 -263 275 -273 97 -6 176 7 251 43
56 26 58 26 71 8 39 -55 37 -54 145 -54 112 0 176 11 190 32 14 23 20 57 14
83 -6 23 -10 24 -94 27 l-87 3 -6 310 c-3 176 -10 323 -16 341 -29 85 -79 140
-158 175 -38 17 -73 23 -145 25 -52 1 -108 0 -125 -2z m265 -658 l0 -95 -33
-25 c-77 -59 -193 -89 -259 -67 -19 6 -48 25 -64 42 -25 27 -29 37 -29 94 0
54 4 67 25 90 43 47 73 54 223 55 l137 0 0 -94z"/>
<path d="M6050 3239 c-111 -12 -154 -33 -158 -77 -2 -19 4 -44 12 -57 15 -22
24 -24 103 -27 l88 -3 3 -322 c3 -368 11 -337 -94 -349 -33 -4 -65 -11 -71
-17 -17 -13 -16 -92 1 -106 9 -8 87 -11 262 -9 l249 3 13 28 c9 18 11 42 8 62
l-7 34 -87 3 -87 3 -5 413 c-4 352 -7 414 -20 422 -18 11 -92 11 -210 -1z"/>
<path d="M7940 3240 c-25 -5 -77 -26 -117 -45 -114 -56 -194 -156 -229 -288
-18 -66 -18 -244 0 -319 34 -142 118 -253 229 -304 58 -27 71 -29 182 -29 127
1 178 12 280 63 76 37 115 70 115 96 0 30 -41 90 -64 94 -10 2 -44 -12 -75
-32 -103 -63 -149 -79 -231 -80 -65 -1 -81 3 -121 26 -73 43 -125 138 -131
238 l-3 45 280 5 c293 5 308 8 339 52 21 29 21 132 1 216 -39 166 -155 261
-328 268 -45 2 -102 -1 -127 -6z m180 -155 c59 -30 99 -113 100 -202 l0 -33
-225 0 c-180 0 -225 3 -225 13 0 7 7 37 16 66 18 61 74 123 137 152 52 23 156
25 197 4z"/>
<path d="M10444 3241 c-112 -18 -203 -63 -235 -114 -41 -68 -12 -164 58 -193
95 -40 198 48 179 152 l-7 34 73 0 c146 0 202 -58 203 -207 l0 -82 -160 -4
c-185 -5 -242 -20 -318 -87 -62 -55 -91 -124 -91 -220 0 -90 20 -135 87 -197
62 -58 132 -77 251 -71 69 4 107 12 156 32 94 40 93 40 115 3 l21 -32 136 0
c121 0 138 2 157 19 18 16 21 29 19 65 l-3 46 -87 3 -86 3 -4 307 c-4 293 -5
310 -27 365 -30 77 -68 119 -139 152 -47 22 -74 28 -152 30 -52 2 -118 0 -146
-4z m276 -655 c0 -93 0 -95 -31 -120 -79 -67 -196 -92 -272 -58 -55 24 -77 61
-77 129 0 62 31 109 90 135 8 4 77 7 153 7 l137 1 0 -94z"/>
<path d="M11305 3244 c-91 -11 -167 -28 -180 -41 -17 -17 -20 -75 -5 -104 9
-17 22 -19 100 -19 l90 0 0 -329 c0 -371 9 -336 -88 -347 -32 -4 -63 -11 -69
-16 -18 -15 -26 -73 -14 -97 11 -21 17 -21 296 -21 325 0 318 -2 313 79 l-3
46 -120 5 -120 5 -3 255 -2 255 52 70 c29 38 67 78 85 88 l32 18 14 -33 c33
-76 112 -108 174 -69 46 29 63 61 64 120 2 46 -2 56 -31 86 -61 63 -133 69
-240 19 -30 -14 -78 -43 -107 -65 -29 -21 -55 -39 -58 -39 -3 0 -5 24 -5 54 0
73 -15 86 -88 85 -31 -1 -70 -4 -87 -5z"/>
<path d="M12823 3238 c-40 -5 -89 -15 -110 -22 -36 -12 -38 -15 -41 -60 -5
-69 5 -76 109 -76 l89 0 0 -324 c0 -258 -3 -326 -13 -335 -8 -6 -45 -14 -83
-18 -69 -8 -69 -8 -77 -43 -6 -22 -5 -45 2 -62 l11 -28 248 0 c232 0 250 1
266 19 12 13 16 32 14 62 l-3 44 -87 3 -88 3 0 279 0 280 43 31 c87 64 136 83
213 84 81 0 101 -11 138 -80 20 -37 21 -57 24 -301 4 -291 6 -281 -67 -291
-23 -3 -46 -12 -52 -19 -16 -20 -15 -94 2 -105 8 -5 112 -9 231 -9 250 0 251
0 246 79 l-3 46 -82 3 -83 3 0 277 c0 308 -10 384 -58 462 -20 33 -43 53 -87
75 -51 26 -69 30 -139 30 -87 0 -122 -10 -259 -73 -42 -19 -80 -33 -83 -30 -3
3 -7 23 -10 44 -2 22 -12 45 -21 52 -19 14 -83 14 -190 0z"/>
<path d="M14320 3244 c-107 -21 -188 -64 -258 -137 -91 -97 -127 -197 -125
-357 1 -253 110 -432 292 -484 114 -33 282 -13 407 49 90 44 124 71 124 98 0
30 -47 97 -67 97 -9 0 -47 -18 -83 -39 -96 -57 -183 -84 -248 -78 -66 7 -133
45 -167 95 -29 42 -65 150 -65 193 l0 29 270 0 c290 0 321 4 354 51 35 50 15
213 -37 312 -58 110 -154 167 -290 172 -45 2 -93 1 -107 -1z m171 -167 c43
-28 79 -99 86 -171 l6 -56 -228 0 -228 0 7 43 c13 82 73 155 156 191 19 8 65
15 101 16 52 0 73 -5 100 -23z"/>
<path d="M15050 3240 c-141 -15 -180 -41 -164 -108 12 -48 21 -52 115 -52 l89
0 0 -324 c0 -260 -3 -326 -14 -335 -7 -6 -42 -14 -77 -17 -40 -4 -69 -12 -76
-22 -16 -20 -17 -84 -1 -100 9 -9 88 -12 294 -12 281 0 283 0 298 22 17 24 21
75 8 95 -5 8 -47 13 -127 15 l-120 3 -3 248 -2 248 35 54 c34 51 116 135 132
135 5 0 15 -18 24 -39 21 -50 61 -76 116 -76 88 0 151 112 109 193 -58 112
-210 101 -378 -27 l-53 -40 -3 67 c-2 38 -8 70 -15 74 -14 9 -95 8 -187 -2z"/>
<path d="M6480 3201 c-14 -27 -13 -84 2 -99 7 -7 37 -12 68 -12 l55 0 159
-415 c88 -228 166 -417 174 -420 26 -10 110 -5 120 8 9 11 44 95 242 585 93
228 100 242 140 242 42 0 60 23 60 81 l0 49 -195 0 c-182 0 -195 -1 -205 -19
-5 -11 -10 -32 -10 -46 0 -54 15 -65 86 -65 49 0 65 -3 61 -12 -3 -7 -53 -129
-111 -272 -103 -254 -112 -274 -120 -265 -6 7 -186 506 -186 518 0 14 33 31
63 31 38 0 59 31 55 81 l-3 44 -222 3 c-212 2 -223 1 -233 -17z"/>
</g>
</svg>
